<svg version="1.2" xmlns="http://www.w3.org/2000/svg" viewBox="0 0 512 512" width="512" height="512">
	<title>Orange arrow-svg</title>
	<style>
		.s0 { fill: #e1523d } 
	</style>
	<g id="Layer">
	</g>
	<g id="Layer">
		<path id="Layer" fill-rule="evenodd" class="s0" d="m481.3 52.4c0.7 30.4-1.9 181.4-1.8 185.1 0.3 14.6-216.6 224.4-216.6 224.4-7.8 8.2-16 9.1-24.6-0.3 0 0-207.3-194.1-207.3-205.8-0.1-9.4-2-174-2.6-203.9-0.2-7.5 11.6-11 22.6 0.2 33.1 33.8 183.8 194.2 183.8 194.2 9.7 12.5 19.7 10.5 30 2.1 0 0 159.7-158.2 193.8-192.2 11.7-11.7 22.6-9.5 22.7-3.8z"/>
	</g>
</svg>