<?xml version="1.0" encoding="UTF-8" standalone="no"?>
<!DOCTYPE svg PUBLIC "-//W3C//DTD SVG 1.1//EN" "http://www.w3.org/Graphics/SVG/1.1/DTD/svg11.dtd">
<svg width="100%" height="100%" viewBox="0 0 512 512" version="1.1" xmlns="http://www.w3.org/2000/svg" xmlns:xlink="http://www.w3.org/1999/xlink" xml:space="preserve" xmlns:serif="http://www.serif.com/" style="fill-rule:evenodd;clip-rule:evenodd;stroke-linecap:round;stroke-linejoin:round;stroke-miterlimit:1.5;">
    <g id="Textures">
        <g transform="matrix(1,0,0,1,-11.8396,15.079)">
            <path d="M447.305,65.139L60,448.921" style="fill:none;stroke:white;stroke-width:29.33px;"/>
        </g>
        <g transform="matrix(0.714783,-4.64871e-17,4.64871e-17,0.714783,115.739,143.119)">
            <path d="M447.305,65.139L60,448.921" style="fill:none;stroke:white;stroke-width:41.04px;"/>
        </g>
        <g transform="matrix(0.453008,0,0,0.453008,240.98,260.635)">
            <path d="M447.305,65.139L60,448.921" style="fill:none;stroke:white;stroke-width:64.75px;"/>
        </g>
        <g transform="matrix(0.438492,0.19035,0.186904,0.450056,261.659,250.247)">
            <path d="M447.305,65.139L60,448.921" style="fill:none;stroke:white;stroke-width:46.34px;"/>
        </g>
        <g transform="matrix(9.02056e-17,-0.714783,-0.714783,-9.02056e-17,371.881,397.966)">
            <path d="M447.305,65.139L60,448.921" style="fill:none;stroke:white;stroke-width:41.04px;"/>
        </g>
        <g transform="matrix(2.08167e-17,-0.453008,-0.453008,-2.08167e-17,254.365,272.725)">
            <path d="M447.305,65.139L60,448.921" style="fill:none;stroke:white;stroke-width:64.75px;"/>
        </g>
        <g transform="matrix(-0.211831,-0.465492,-0.469364,-0.211831,263.417,272.015)">
            <path d="M447.305,65.139L60,448.921" style="fill:none;stroke:white;stroke-width:43.18px;"/>
        </g>
    </g>
</svg>
